<mxfile host="app.diagrams.net" modified="2022-06-10T09:36:53.709Z" agent="5.0 (Windows NT 10.0; Win64; x64) AppleWebKit/537.36 (KHTML, like Gecko) Chrome/102.0.5005.99 Safari/537.36" etag="ywgwh4zzyIlm7RRZ1Cug" version="19.0.1" type="github">
  <diagram id="K9mG_RED5zR1RW_hAbLD" name="Page-1">
    <mxGraphModel dx="1422" dy="798" grid="1" gridSize="10" guides="1" tooltips="1" connect="1" arrows="1" fold="1" page="1" pageScale="1" pageWidth="827" pageHeight="1169" math="0" shadow="0">
      <root>
        <mxCell id="0" />
        <mxCell id="1" parent="0" />
        <mxCell id="_QlOosYH2mttHdngYGc2-9" value="User" style="swimlane;fontStyle=0;childLayout=stackLayout;horizontal=1;startSize=26;fillColor=none;horizontalStack=0;resizeParent=1;resizeParentMax=0;resizeLast=0;collapsible=1;marginBottom=0;fontSize=21;labelPosition=center;verticalLabelPosition=middle;align=center;verticalAlign=middle;swimlaneLine=1;glass=0;rounded=0;shadow=0;sketch=0;spacing=2;" parent="1" vertex="1">
          <mxGeometry x="70" y="120" width="380" height="340" as="geometry" />
        </mxCell>
        <mxCell id="_QlOosYH2mttHdngYGc2-10" value="- username : String" style="text;strokeColor=none;fillColor=none;align=center;verticalAlign=middle;spacingLeft=4;spacingRight=4;overflow=hidden;rotatable=0;points=[[0,0.5],[1,0.5]];portConstraint=eastwest;fontSize=21;labelPosition=center;verticalLabelPosition=middle;swimlaneLine=1;glass=0;rounded=0;shadow=0;sketch=0;spacing=2;" parent="_QlOosYH2mttHdngYGc2-9" vertex="1">
          <mxGeometry y="26" width="380" height="26" as="geometry" />
        </mxCell>
        <mxCell id="_QlOosYH2mttHdngYGc2-11" value="- password : String" style="text;strokeColor=none;fillColor=none;align=center;verticalAlign=middle;spacingLeft=4;spacingRight=4;overflow=hidden;rotatable=0;points=[[0,0.5],[1,0.5]];portConstraint=eastwest;fontSize=21;labelPosition=center;verticalLabelPosition=middle;swimlaneLine=1;glass=0;rounded=0;shadow=0;sketch=0;spacing=2;" parent="_QlOosYH2mttHdngYGc2-9" vertex="1">
          <mxGeometry y="52" width="380" height="26" as="geometry" />
        </mxCell>
        <mxCell id="_QlOosYH2mttHdngYGc2-12" value="- image: String" style="text;strokeColor=none;fillColor=none;align=center;verticalAlign=middle;spacingLeft=4;spacingRight=4;overflow=hidden;rotatable=0;points=[[0,0.5],[1,0.5]];portConstraint=eastwest;fontSize=21;labelPosition=center;verticalLabelPosition=middle;swimlaneLine=1;glass=0;rounded=0;shadow=0;sketch=0;spacing=2;" parent="_QlOosYH2mttHdngYGc2-9" vertex="1">
          <mxGeometry y="78" width="380" height="26" as="geometry" />
        </mxCell>
        <mxCell id="_QlOosYH2mttHdngYGc2-35" value="- email : String" style="text;strokeColor=none;fillColor=none;spacingLeft=4;spacingRight=4;overflow=hidden;rotatable=0;points=[[0,0.5],[1,0.5]];portConstraint=eastwest;fontSize=21;labelPosition=center;verticalLabelPosition=middle;align=center;verticalAlign=middle;swimlaneLine=1;glass=0;rounded=0;shadow=0;sketch=0;spacing=2;" parent="_QlOosYH2mttHdngYGc2-9" vertex="1">
          <mxGeometry y="104" width="380" height="26" as="geometry" />
        </mxCell>
        <mxCell id="_QlOosYH2mttHdngYGc2-37" value="- bio : String" style="text;strokeColor=none;fillColor=none;spacingLeft=4;spacingRight=4;overflow=hidden;rotatable=0;points=[[0,0.5],[1,0.5]];portConstraint=eastwest;fontSize=21;labelPosition=center;verticalLabelPosition=middle;align=center;verticalAlign=middle;swimlaneLine=1;glass=0;rounded=0;shadow=0;sketch=0;spacing=2;" parent="_QlOosYH2mttHdngYGc2-9" vertex="1">
          <mxGeometry y="130" width="380" height="30" as="geometry" />
        </mxCell>
        <mxCell id="_QlOosYH2mttHdngYGc2-100" value="- cashart : unsigned double" style="text;strokeColor=none;fillColor=none;spacingLeft=4;spacingRight=4;overflow=hidden;rotatable=0;points=[[0,0.5],[1,0.5]];portConstraint=eastwest;fontSize=21;labelPosition=center;verticalLabelPosition=middle;align=center;verticalAlign=middle;swimlaneLine=1;glass=0;rounded=0;shadow=0;sketch=0;spacing=2;" parent="_QlOosYH2mttHdngYGc2-9" vertex="1">
          <mxGeometry y="160" width="380" height="30" as="geometry" />
        </mxCell>
        <mxCell id="_QlOosYH2mttHdngYGc2-83" value="gallery&lt;&gt;: NFT" style="text;strokeColor=none;fillColor=none;spacingLeft=4;spacingRight=4;overflow=hidden;rotatable=0;points=[[0,0.5],[1,0.5]];portConstraint=eastwest;fontSize=21;labelPosition=center;verticalLabelPosition=middle;align=center;verticalAlign=middle;swimlaneLine=1;glass=0;rounded=0;shadow=0;sketch=0;spacing=2;" parent="_QlOosYH2mttHdngYGc2-9" vertex="1">
          <mxGeometry y="190" width="380" height="30" as="geometry" />
        </mxCell>
        <mxCell id="_QlOosYH2mttHdngYGc2-90" value="- nft_created_count : unsigned long int" style="text;strokeColor=none;fillColor=none;spacingLeft=4;spacingRight=4;overflow=hidden;rotatable=0;points=[[0,0.5],[1,0.5]];portConstraint=eastwest;fontSize=21;labelPosition=center;verticalLabelPosition=middle;align=center;verticalAlign=middle;swimlaneLine=1;glass=0;rounded=0;shadow=0;sketch=0;spacing=2;" parent="_QlOosYH2mttHdngYGc2-9" vertex="1">
          <mxGeometry y="220" width="380" height="40" as="geometry" />
        </mxCell>
        <mxCell id="_QlOosYH2mttHdngYGc2-23" value="- nft_sold&lt;&gt; : NFTSold" style="text;strokeColor=none;fillColor=none;align=center;verticalAlign=middle;spacingLeft=4;spacingRight=4;overflow=hidden;rotatable=0;points=[[0,0.5],[1,0.5]];portConstraint=eastwest;fontSize=21;labelPosition=center;verticalLabelPosition=middle;swimlaneLine=1;glass=0;rounded=0;shadow=0;sketch=0;spacing=2;" parent="_QlOosYH2mttHdngYGc2-9" vertex="1">
          <mxGeometry y="260" width="380" height="26" as="geometry" />
        </mxCell>
        <mxCell id="_QlOosYH2mttHdngYGc2-22" value="- nft_purchased&lt;&gt; : NFTSold" style="text;strokeColor=none;fillColor=none;align=center;verticalAlign=middle;spacingLeft=4;spacingRight=4;overflow=hidden;rotatable=0;points=[[0,0.5],[1,0.5]];portConstraint=eastwest;fontSize=21;labelPosition=center;verticalLabelPosition=middle;swimlaneLine=1;glass=0;rounded=0;shadow=0;sketch=0;spacing=2;" parent="_QlOosYH2mttHdngYGc2-9" vertex="1">
          <mxGeometry y="286" width="380" height="28" as="geometry" />
        </mxCell>
        <mxCell id="_QlOosYH2mttHdngYGc2-26" value="- public_gallery&lt;&gt; : NFT" style="text;strokeColor=none;fillColor=none;align=center;verticalAlign=middle;spacingLeft=4;spacingRight=4;overflow=hidden;rotatable=0;points=[[0,0.5],[1,0.5]];portConstraint=eastwest;fontSize=21;labelPosition=center;verticalLabelPosition=middle;swimlaneLine=1;glass=0;rounded=0;shadow=0;sketch=0;spacing=2;" parent="_QlOosYH2mttHdngYGc2-9" vertex="1">
          <mxGeometry y="314" width="380" height="26" as="geometry" />
        </mxCell>
        <mxCell id="_QlOosYH2mttHdngYGc2-39" value="NFT" style="swimlane;fontStyle=0;childLayout=stackLayout;horizontal=1;startSize=26;fillColor=none;horizontalStack=0;resizeParent=1;resizeParentMax=0;resizeLast=0;collapsible=1;marginBottom=0;fontSize=21;labelPosition=center;verticalLabelPosition=middle;align=center;verticalAlign=middle;" parent="1" vertex="1">
          <mxGeometry x="930" y="90" width="250" height="276" as="geometry" />
        </mxCell>
        <mxCell id="_QlOosYH2mttHdngYGc2-42" value="- nft_code : String" style="text;strokeColor=none;fillColor=none;align=center;verticalAlign=middle;spacingLeft=4;spacingRight=4;overflow=hidden;rotatable=0;points=[[0,0.5],[1,0.5]];portConstraint=eastwest;fontSize=21;labelPosition=center;verticalLabelPosition=middle;" parent="_QlOosYH2mttHdngYGc2-39" vertex="1">
          <mxGeometry y="26" width="250" height="26" as="geometry" />
        </mxCell>
        <mxCell id="_QlOosYH2mttHdngYGc2-40" value="- image : String" style="text;strokeColor=none;fillColor=none;align=center;verticalAlign=middle;spacingLeft=4;spacingRight=4;overflow=hidden;rotatable=0;points=[[0,0.5],[1,0.5]];portConstraint=eastwest;fontSize=21;labelPosition=center;verticalLabelPosition=middle;" parent="_QlOosYH2mttHdngYGc2-39" vertex="1">
          <mxGeometry y="52" width="250" height="26" as="geometry" />
        </mxCell>
        <mxCell id="_QlOosYH2mttHdngYGc2-43" value="- name : String" style="text;strokeColor=none;fillColor=none;spacingLeft=4;spacingRight=4;overflow=hidden;rotatable=0;points=[[0,0.5],[1,0.5]];portConstraint=eastwest;fontSize=21;labelPosition=center;verticalLabelPosition=middle;align=center;verticalAlign=middle;" parent="_QlOosYH2mttHdngYGc2-39" vertex="1">
          <mxGeometry y="78" width="250" height="22" as="geometry" />
        </mxCell>
        <mxCell id="_QlOosYH2mttHdngYGc2-41" value="- description : String" style="text;strokeColor=none;fillColor=none;align=center;verticalAlign=middle;spacingLeft=4;spacingRight=4;overflow=hidden;rotatable=0;points=[[0,0.5],[1,0.5]];portConstraint=eastwest;fontSize=21;labelPosition=center;verticalLabelPosition=middle;" parent="_QlOosYH2mttHdngYGc2-39" vertex="1">
          <mxGeometry y="100" width="250" height="26" as="geometry" />
        </mxCell>
        <mxCell id="_QlOosYH2mttHdngYGc2-44" value="- author : User" style="text;strokeColor=none;fillColor=none;spacingLeft=4;spacingRight=4;overflow=hidden;rotatable=0;points=[[0,0.5],[1,0.5]];portConstraint=eastwest;fontSize=21;labelPosition=center;verticalLabelPosition=middle;align=center;verticalAlign=middle;" parent="_QlOosYH2mttHdngYGc2-39" vertex="1">
          <mxGeometry y="126" width="250" height="30" as="geometry" />
        </mxCell>
        <mxCell id="EJx-HE8bt6CjaeDZ0_VL-29" value="- selling_date : LocalDate" style="text;strokeColor=none;fillColor=none;spacingLeft=4;spacingRight=4;overflow=hidden;rotatable=0;points=[[0,0.5],[1,0.5]];portConstraint=eastwest;fontSize=21;labelPosition=center;verticalLabelPosition=middle;align=center;verticalAlign=middle;" parent="_QlOosYH2mttHdngYGc2-39" vertex="1">
          <mxGeometry y="156" width="250" height="30" as="geometry" />
        </mxCell>
        <mxCell id="EJx-HE8bt6CjaeDZ0_VL-31" value="- id_user:int" style="text;strokeColor=none;fillColor=none;spacingLeft=4;spacingRight=4;overflow=hidden;rotatable=0;points=[[0,0.5],[1,0.5]];portConstraint=eastwest;fontSize=21;labelPosition=center;verticalLabelPosition=middle;align=center;verticalAlign=middle;" parent="_QlOosYH2mttHdngYGc2-39" vertex="1">
          <mxGeometry y="186" width="250" height="30" as="geometry" />
        </mxCell>
        <mxCell id="_QlOosYH2mttHdngYGc2-53" value="- state: boolean" style="text;strokeColor=none;fillColor=none;spacingLeft=4;spacingRight=4;overflow=hidden;rotatable=0;points=[[0,0.5],[1,0.5]];portConstraint=eastwest;fontSize=21;labelPosition=center;verticalLabelPosition=middle;align=center;verticalAlign=middle;" parent="_QlOosYH2mttHdngYGc2-39" vertex="1">
          <mxGeometry y="216" width="250" height="30" as="geometry" />
        </mxCell>
        <mxCell id="EJx-HE8bt6CjaeDZ0_VL-37" value="- price: float" style="text;strokeColor=none;fillColor=none;spacingLeft=4;spacingRight=4;overflow=hidden;rotatable=0;points=[[0,0.5],[1,0.5]];portConstraint=eastwest;fontSize=21;labelPosition=center;verticalLabelPosition=middle;align=center;verticalAlign=middle;" parent="_QlOosYH2mttHdngYGc2-39" vertex="1">
          <mxGeometry y="246" width="250" height="30" as="geometry" />
        </mxCell>
        <mxCell id="EJx-HE8bt6CjaeDZ0_VL-22" value="" style="endArrow=none;html=1;rounded=0;fontSize=21;labelPosition=center;verticalLabelPosition=middle;align=center;verticalAlign=middle;" parent="1" source="_QlOosYH2mttHdngYGc2-39" target="_QlOosYH2mttHdngYGc2-9" edge="1">
          <mxGeometry relative="1" as="geometry">
            <mxPoint x="828.3200000000002" y="188.67000000000007" as="sourcePoint" />
            <mxPoint x="463" y="189.99643059490094" as="targetPoint" />
          </mxGeometry>
        </mxCell>
        <mxCell id="EJx-HE8bt6CjaeDZ0_VL-24" value="1" style="text;html=1;align=center;verticalAlign=middle;resizable=0;points=[];autosize=1;strokeColor=none;fillColor=none;fontSize=21;labelPosition=center;verticalLabelPosition=middle;swimlaneLine=1;glass=0;rounded=0;shadow=0;sketch=0;spacing=2;" parent="1" vertex="1">
          <mxGeometry x="460" y="220" width="30" height="30" as="geometry" />
        </mxCell>
        <mxCell id="EJx-HE8bt6CjaeDZ0_VL-32" value="stato = in vendita (true), in galleria (false)" style="text;html=1;align=center;verticalAlign=middle;resizable=0;points=[];autosize=1;strokeColor=none;fillColor=none;fontSize=23;" parent="1" vertex="1">
          <mxGeometry x="1180" y="305" width="430" height="30" as="geometry" />
        </mxCell>
        <mxCell id="EJx-HE8bt6CjaeDZ0_VL-33" value="Lo shop è una query sullo stato true delle NFT" style="text;html=1;align=center;verticalAlign=middle;resizable=0;points=[];autosize=1;strokeColor=none;fillColor=none;fontSize=23;" parent="1" vertex="1">
          <mxGeometry x="585" y="470" width="440" height="30" as="geometry" />
        </mxCell>
        <mxCell id="EJx-HE8bt6CjaeDZ0_VL-34" value="L&#39;id user serve per rintracciare il proprietario attuale o il venditore" style="text;html=1;align=center;verticalAlign=middle;resizable=0;points=[];autosize=1;strokeColor=none;fillColor=none;fontSize=23;" parent="1" vertex="1">
          <mxGeometry x="1180" y="275" width="680" height="30" as="geometry" />
        </mxCell>
        <mxCell id="EJx-HE8bt6CjaeDZ0_VL-35" value="N" style="text;html=1;align=center;verticalAlign=middle;resizable=0;points=[];autosize=1;strokeColor=none;fillColor=none;fontSize=21;labelPosition=center;verticalLabelPosition=middle;swimlaneLine=1;glass=0;rounded=0;shadow=0;sketch=0;spacing=2;" parent="1" vertex="1">
          <mxGeometry x="890" y="190" width="30" height="30" as="geometry" />
        </mxCell>
        <mxCell id="EJx-HE8bt6CjaeDZ0_VL-39" value="id_user e state ci forniscono lo shop utente" style="text;html=1;align=center;verticalAlign=middle;resizable=0;points=[];autosize=1;strokeColor=none;fillColor=none;fontSize=23;" parent="1" vertex="1">
          <mxGeometry x="470" y="305" width="450" height="30" as="geometry" />
        </mxCell>
      </root>
    </mxGraphModel>
  </diagram>
</mxfile>
